<mxfile host="app.diagrams.net" agent="Mozilla/5.0 (Windows NT 10.0; Win64; x64) AppleWebKit/537.36 (KHTML, like Gecko) Chrome/130.0.0.0 Safari/537.36" version="24.8.3">
  <diagram name="Page-1" id="g6N_VXa0MfSsamenP7j_">
    <mxGraphModel dx="1702" dy="670" grid="0" gridSize="10" guides="1" tooltips="1" connect="1" arrows="1" fold="1" page="0" pageScale="1" pageWidth="850" pageHeight="1100" math="0" shadow="0">
      <root>
        <mxCell id="0" />
        <mxCell id="1" parent="0" />
        <mxCell id="AmKpzmn3thacQV3nHGnP-6" style="edgeStyle=none;curved=1;rounded=0;orthogonalLoop=1;jettySize=auto;html=1;entryX=0;entryY=0;entryDx=0;entryDy=0;fontSize=12;startSize=8;endSize=8;" edge="1" parent="1" source="AmKpzmn3thacQV3nHGnP-1" target="AmKpzmn3thacQV3nHGnP-2">
          <mxGeometry relative="1" as="geometry" />
        </mxCell>
        <mxCell id="AmKpzmn3thacQV3nHGnP-1" value="&lt;font style=&quot;font-size: 26px;&quot;&gt;H&lt;/font&gt;" style="ellipse;whiteSpace=wrap;html=1;aspect=fixed;" vertex="1" parent="1">
          <mxGeometry x="-41" y="16" width="71" height="71" as="geometry" />
        </mxCell>
        <mxCell id="AmKpzmn3thacQV3nHGnP-2" value="&lt;font style=&quot;font-size: 26px;&quot;&gt;P&lt;/font&gt;" style="ellipse;whiteSpace=wrap;html=1;aspect=fixed;" vertex="1" parent="1">
          <mxGeometry x="133" y="117" width="71" height="71" as="geometry" />
        </mxCell>
        <mxCell id="AmKpzmn3thacQV3nHGnP-4" style="edgeStyle=none;curved=1;rounded=0;orthogonalLoop=1;jettySize=auto;html=1;entryX=0.5;entryY=1;entryDx=0;entryDy=0;fontSize=12;startSize=8;endSize=8;" edge="1" parent="1" source="AmKpzmn3thacQV3nHGnP-3" target="AmKpzmn3thacQV3nHGnP-1">
          <mxGeometry relative="1" as="geometry" />
        </mxCell>
        <mxCell id="AmKpzmn3thacQV3nHGnP-5" style="edgeStyle=none;curved=1;rounded=0;orthogonalLoop=1;jettySize=auto;html=1;entryX=0;entryY=1;entryDx=0;entryDy=0;fontSize=12;startSize=8;endSize=8;" edge="1" parent="1" source="AmKpzmn3thacQV3nHGnP-3" target="AmKpzmn3thacQV3nHGnP-2">
          <mxGeometry relative="1" as="geometry" />
        </mxCell>
        <mxCell id="AmKpzmn3thacQV3nHGnP-3" value="&lt;font style=&quot;font-size: 26px;&quot;&gt;A&lt;/font&gt;" style="ellipse;whiteSpace=wrap;html=1;aspect=fixed;" vertex="1" parent="1">
          <mxGeometry x="-39" y="236" width="71" height="71" as="geometry" />
        </mxCell>
      </root>
    </mxGraphModel>
  </diagram>
</mxfile>
